HIERARCHY
ROOT joint_Root
{
	OFFSET 0.0 0.0 0.0
	CHANNELS 6 Xposition Yposition Zposition Zrotation Xrotation Yrotation 
	JOINT Hips
	{
		OFFSET -17.1583 93.1646 452.98
		CHANNELS 6 Xposition Yposition Zposition Zrotation Xrotation Yrotation 
		JOINT Spine
		{
			OFFSET 15.7357 0.0 0.0
			CHANNELS 6 Xposition Yposition Zposition Zrotation Xrotation Yrotation 
			JOINT Chest
			{
				OFFSET 8.98455 -0.406207 0.0
				CHANNELS 6 Xposition Yposition Zposition Zrotation Xrotation Yrotation 
				JOINT Neck
				{
					OFFSET 16.3773 0.0 0.0
					CHANNELS 6 Xposition Yposition Zposition Zrotation Xrotation Yrotation 
					JOINT Head
					{
						OFFSET 6.45672 0.0 0.0
						CHANNELS 6 Xposition Yposition Zposition Zrotation Xrotation Yrotation 
						End Site
						{
							OFFSET 0.0 0.0 0.0
						}
					}
				}
				JOINT Shoulder_L
				{
					OFFSET 12.9942 -0.242716 4.98039
					CHANNELS 6 Xposition Yposition Zposition Zrotation Xrotation Yrotation 
					JOINT UpperArm_L
					{
						OFFSET 5.34809 0.0 0.0
						CHANNELS 6 Xposition Yposition Zposition Zrotation Xrotation Yrotation 
						JOINT LowerArm_L
						{
							OFFSET 24.3286 1.87007e-05 0.0
							CHANNELS 6 Xposition Yposition Zposition Zrotation Xrotation Yrotation 
							JOINT Hand_L
							{
								OFFSET 22.2916 0.0 0.0
								CHANNELS 6 Xposition Yposition Zposition Zrotation Xrotation Yrotation 
								End Site
								{
									OFFSET 0.0 0.0 0.0
								}
							}
						}
					}
				}
				JOINT Shoulder_R
				{
					OFFSET 12.9945 -0.242716 -4.98039
					CHANNELS 6 Xposition Yposition Zposition Zrotation Xrotation Yrotation 
					JOINT UpperArm_R
					{
						OFFSET -5.34813 0.0 0.0
						CHANNELS 6 Xposition Yposition Zposition Zrotation Xrotation Yrotation 
						JOINT LowerArm_R
						{
							OFFSET -24.3289 0.000322201 0.0
							CHANNELS 6 Xposition Yposition Zposition Zrotation Xrotation Yrotation 
							JOINT Hand_R
							{
								OFFSET -22.2915 -0.000108084 0.0
								CHANNELS 6 Xposition Yposition Zposition Zrotation Xrotation Yrotation 
								End Site
								{
									OFFSET 0.0 0.0 0.0
								}
							}
						}
					}
				}
			}
		}
		JOINT UpperLeg_L
		{
			OFFSET -2.19248 -6.46944 0.0
			CHANNELS 6 Xposition Yposition Zposition Zrotation Xrotation Yrotation 
			JOINT LowerLeg_L
			{
				OFFSET 39.0811 0.0 -1.23785e-05
				CHANNELS 6 Xposition Yposition Zposition Zrotation Xrotation Yrotation 
				JOINT Foot_L
				{
					OFFSET 40.9854 0.0 -1.26872e-05
					CHANNELS 6 Xposition Yposition Zposition Zrotation Xrotation Yrotation 
					JOINT Toes_L
					{
						OFFSET 11.7543 0.0 0.0
						CHANNELS 6 Xposition Yposition Zposition Zrotation Xrotation Yrotation 
						End Site
						{
							OFFSET 0.0 0.0 0.0
						}
					}
				}
			}
		}
		JOINT UpperLeg_R
		{
			OFFSET -2.19251 6.46944 0.0
			CHANNELS 6 Xposition Yposition Zposition Zrotation Xrotation Yrotation 
			JOINT LowerLeg_R
			{
				OFFSET -39.0811 -0.00228153 -0.0401928
				CHANNELS 6 Xposition Yposition Zposition Zrotation Xrotation Yrotation 
				JOINT Foot_R
				{
					OFFSET -40.9854 0.0 0.0
					CHANNELS 6 Xposition Yposition Zposition Zrotation Xrotation Yrotation 
					JOINT Toes_R
					{
						OFFSET -11.7543 0.0 0.0
						CHANNELS 6 Xposition Yposition Zposition Zrotation Xrotation Yrotation 
						End Site
						{
							OFFSET 0.0 0.0 0.0
						}
					}
				}
			}
		}
	}
}
MOTION
Frames:	4
Frame Time:	0.0333333
0.000000 0.000000 0.000000 0.000000 0.000000 -0.000000 192.751000 90.540400 -117.750000 94.213400 -2.463360 -1.130230 15.735700 0.000005 -0.000001 88.563600 87.604300 -89.219800 8.984550 -0.406207 -0.000000 -2.976150 -0.058565 -1.314080 16.377300 -0.000001 -0.000001 1.669630 3.199690 -3.318500 6.456720 -0.000001 -0.000000 7.758430 2.875920 -1.010130 12.994200 -0.242716 4.980390 -92.910200 8.160780 -70.296400 5.348090 -0.000007 -0.000001 -72.941200 0.260600 2.175920 24.328600 0.000019 0.000005 19.821800 27.965800 -37.540500 22.291600 -0.000001 0.000005 56.622600 4.552370 15.725700 12.994500 -0.242716 -4.980390 88.996000 3.242560 -72.786100 -5.348130 -0.000001 -0.000004 -72.251000 0.026009 4.932400 -24.328900 0.000322 -0.000009 0.364826 1.544500 -13.317900 -22.291500 -0.000108 -0.000004 39.755900 5.389650 -2.604750 -2.192480 -6.469440 -0.000000 173.034000 0.036756 -16.188500 39.081100 -0.000007 -0.000012 -0.021546 0.032835 33.273900 40.985400 -0.000006 -0.000013 -0.576793 10.115000 -73.109500 11.754300 -0.000000 0.000003 -0.002218 0.199044 -8.501120 -2.192510 6.469440 -0.000001 175.276000 -0.002802 162.074000 -39.081100 -0.002282 -0.040193 0.166309 -0.061597 69.320300 -40.985400 0.000008 0.000006 -4.087320 -8.612160 -38.595800 -11.754300 -0.000006 -0.000006 -0.000581 0.176930 -9.396580
0.000000 0.000000 0.000000 0.000000 0.000000 -0.000000 192.584000 91.175100 -114.725000 93.217000 -2.094270 -0.415769 15.735700 0.000005 -0.000001 75.420100 87.198800 -75.680900 8.984550 -0.406207 -0.000000 -2.347510 -1.386830 -0.549891 16.377300 -0.000001 -0.000001 2.233580 3.522050 -3.696390 6.456720 -0.000001 -0.000000 7.756200 3.758400 -0.910322 12.994200 -0.242716 4.980390 -92.796000 7.953590 -70.559800 5.348090 -0.000007 -0.000001 -72.130700 1.766710 0.294640 24.328600 0.000019 0.000005 25.740200 28.028400 -45.731200 22.291600 -0.000001 0.000005 56.911900 4.563440 15.538400 12.994500 -0.242716 -4.980390 89.084000 2.890140 -72.405200 -5.348130 -0.000001 -0.000004 -70.938200 -1.842470 6.894330 -24.328900 0.000322 -0.000009 0.145344 0.712984 -11.595800 -22.291500 -0.000108 -0.000004 39.548300 5.373690 -2.102420 -2.192480 -6.469440 -0.000000 174.317000 -2.447430 -11.692600 39.081100 -0.000007 -0.000012 -0.020983 0.036036 30.212000 40.985400 -0.000006 -0.000013 -0.060306 12.842400 -73.111700 11.754300 -0.000000 0.000003 -0.001638 0.191714 -8.799190 -2.192510 6.469440 -0.000001 177.228000 -2.697900 157.615000 -39.081100 -0.002282 -0.040193 0.079623 -0.026325 71.016100 -40.985400 0.000008 0.000006 -4.765430 -10.326400 -46.611600 -11.754300 -0.000006 -0.000006 -0.000891 0.181514 -9.210310
0.000000 0.000000 0.000000 0.000000 0.000000 -0.000000 192.265000 91.917000 -111.852000 91.919900 -1.523130 -0.159185 15.735700 0.000005 -0.000001 65.824000 86.906700 -65.574400 8.984550 -0.406207 -0.000000 -2.117240 -2.554480 0.451872 16.377300 -0.000001 -0.000001 3.059970 3.583260 -4.185810 6.456720 -0.000001 -0.000000 7.975640 4.430200 -0.796519 12.994200 -0.242716 4.980390 -92.640900 7.644870 -70.877500 5.348090 -0.000007 -0.000001 -71.037300 2.116870 -1.737030 24.328600 0.000019 0.000005 30.210200 26.874000 -52.174700 22.291600 -0.000001 0.000005 57.516400 4.546610 15.822600 12.994500 -0.242716 -4.980390 89.151500 2.585970 -71.826100 -5.348130 -0.000001 -0.000004 -69.128600 -3.473940 9.139420 -24.328900 0.000322 -0.000009 0.138540 0.724923 -10.899200 -22.291500 -0.000108 -0.000004 39.609300 5.364170 -1.806630 -2.192480 -6.469440 -0.000000 176.127000 -3.561510 -7.297360 39.081100 -0.000007 -0.000012 -0.016029 0.032680 26.128200 40.985400 -0.000006 -0.000013 -0.111530 14.654400 -72.343000 11.754300 -0.000000 0.000003 -0.001472 0.189526 -8.888150 -2.192510 6.469440 -0.000001 179.331000 -4.951440 154.131000 -39.081100 -0.002282 -0.040193 -0.002299 0.002107 68.778700 -40.985400 0.000008 0.000006 -4.642300 -14.102100 -54.973600 -11.754300 -0.000006 -0.000006 -0.001047 0.183735 -9.120090
0.000000 0.000000 0.000000 0.000000 0.000000 -0.000000 191.891000 92.622700 -109.187000 90.595300 -0.717957 -0.520313 15.735700 0.000005 -0.000001 57.744300 86.754900 -56.989700 8.984550 -0.406207 -0.000000 -2.255360 -3.528780 1.440010 16.377300 -0.000001 -0.000001 3.855860 3.421660 -4.450820 6.456720 -0.000001 -0.000000 8.212880 4.800930 -0.802729 12.994200 -0.242716 4.980390 -92.462600 7.268100 -71.224800 5.348090 -0.000007 -0.000001 -70.122800 1.556410 -4.091860 24.328600 0.000019 0.000005 32.303200 24.657500 -56.581100 22.291600 -0.000001 0.000005 57.670500 4.536890 15.986000 12.994500 -0.242716 -4.980390 89.179500 2.404320 -71.151100 -5.348130 -0.000001 -0.000004 -67.145300 -4.597110 11.282500 -24.328900 0.000322 -0.000009 0.151974 0.811044 -10.684500 -22.291500 -0.000108 -0.000004 39.465000 5.357490 -1.603480 -2.192480 -6.469440 -0.000000 177.994000 -3.823930 -3.811850 39.081100 -0.000007 -0.000012 -0.008003 0.019763 22.044600 40.985400 -0.000006 -0.000013 -0.887992 15.943800 -70.755600 11.754300 -0.000000 0.000003 -0.000908 0.181720 -9.205440 -2.192510 6.469440 -0.000001 -179.064000 -7.295850 151.517000 -39.081100 -0.002282 -0.040193 -0.046511 0.026154 62.243500 -40.985400 0.000008 0.000006 -4.281270 -18.128600 -60.407100 -11.754300 -0.000006 -0.000006 -0.001821 0.194126 -8.697680
